<svg xmlns="http://www.w3.org/2000/svg" viewBox="0 0 200 200">
  <defs>
    <linearGradient id="bgGradient" x1="0%" y1="0%" x2="100%" y2="100%">
      <stop offset="0%" style="stop-color:#003366;stop-opacity:1" />
      <stop offset="100%" style="stop-color:#004080;stop-opacity:1" />
    </linearGradient>
  </defs>
  
  <!-- Circular border -->
  <circle cx="100" cy="100" r="98" fill="#004080" />
  <circle cx="100" cy="100" r="90" fill="white" />
  
  <!-- Main circle background -->
  <circle cx="100" cy="100" r="88" fill="#004080" />
  
  <!-- Globe grid lines -->
  <ellipse cx="100" cy="100" rx="80" ry="80" fill="none" stroke="white" stroke-width="2" stroke-opacity="0.5" />
  <ellipse cx="100" cy="100" rx="80" ry="40" fill="none" stroke="white" stroke-width="2" stroke-opacity="0.5" />
  <line x1="20" y1="100" x2="180" y2="100" stroke="white" stroke-width="2" stroke-opacity="0.5" />
  <line x1="100" y1="20" x2="100" y2="180" stroke="white" stroke-width="2" stroke-opacity="0.5" />
  
  <!-- Airplane icon -->
  <path d="M120,60 L130,50 L140,50 L145,45 L145,40 L140,35 L135,40 L100,40 L90,20 L80,20 L90,40 L65,45 L60,40 L50,40 L55,50 L80,60" fill="white" />
  
  <!-- Ship/boat icon -->
  <path d="M40,120 L160,120 L145,150 C145,150 120,140 100,140 C80,140 55,150 55,150 L40,120 Z" fill="white" />
  
  <!-- Cargo/containers on ship -->
  <rect x="80" y="100" width="10" height="20" fill="white" />
  <rect x="95" y="100" width="10" height="20" fill="white" />
  <rect x="110" y="100" width="10" height="20" fill="white" />
  <rect x="87" y="85" width="10" height="15" fill="white" />
  <rect x="102" y="85" width="10" height="15" fill="white" />
  
  <!-- Waves -->
  <path d="M30,160 Q45,150 60,160 Q75,150 90,160 Q105,150 120,160 Q135,150 150,160 Q165,150 180,160" fill="none" stroke="white" stroke-width="3" />
  <path d="M30,170 Q45,160 60,170 Q75,160 90,170 Q105,160 120,170 Q135,160 150,170 Q165,160 180,170" fill="none" stroke="white" stroke-width="2" />
</svg>
