<svg xmlns="http://www.w3.org/2000/svg" viewBox="0 0 200 200">
  <defs>
    <linearGradient id="grad1" x1="0%" y1="0%" x2="100%" y2="100%">
      <stop offset="0%" style="stop-color:#004080;stop-opacity:1" />
      <stop offset="100%" style="stop-color:#0056b3;stop-opacity:1" />
    </linearGradient>
  </defs>
  
  <!-- Circular background -->
  <circle cx="100" cy="100" r="95" fill="url(#grad1)" />
  <circle cx="100" cy="100" r="85" fill="white" />
  <circle cx="100" cy="100" r="80" fill="url(#grad1)" />
  
  <!-- Ship icon -->
  <g fill="white">
    <!-- Ship body -->
    <path d="M50,120 L150,120 L140,150 L60,150 Z" />
    
    <!-- Ship mast -->
    <rect x="95" y="70" width="10" height="50" />
    
    <!-- Ship sail -->
    <path d="M105,70 L105,110 L145,110 Z" />
    
    <!-- Waves -->
    <path d="M40,160 Q55,150 70,160 Q85,170 100,160 Q115,150 130,160 Q145,170 160,160 L160,170 L40,170 Z" />
  </g>
  
  <!-- Globe grid lines -->
  <circle cx="100" cy="100" r="70" fill="none" stroke="white" stroke-width="2" stroke-opacity="0.3" />
  <ellipse cx="100" cy="100" rx="70" ry="30" fill="none" stroke="white" stroke-width="2" stroke-opacity="0.3" />
  <line x1="30" y1="100" x2="170" y2="100" stroke="white" stroke-width="2" stroke-opacity="0.3" />
  <line x1="100" y1="30" x2="100" y2="170" stroke="white" stroke-width="2" stroke-opacity="0.3" />
</svg>
